<svg id="one_line" data-name="one line" xmlns="http://www.w3.org/2000/svg" viewBox="0 0 911.76 93.64"><defs><style>.cls-1{fill:#fff;}</style></defs><title>SportsIllustrated_oneLine_white</title><path class="cls-1" d="M56.76,45.57c-6.82-1.46-9.41-2.92-9.41-7.3V35.56a3.29,3.29,0,0,1,3.53-3.13c2.35,0,3.53,1.46,3.53,3.13v8.55H85.7V38.89c0-14.18-7.3-21.69-36.47-21.69-21.17,0-36.93,6.68-36.93,21.49V41.4c0,12.93,6.35,18.77,30.11,24,7.53,1.67,10.12,1.88,10.12,6.47v2.71c0,2.71-.71,3.76-3.53,3.76-3.29,0-3.53-1.88-3.53-4V67.26H12.3V70.6c0,17.52,11.06,22.73,37.64,22.73,25.17,0,36.93-4.79,36.93-21.9v-4c0-12.1-7.29-17.1-30.11-21.9Zm72-13.56H89v68.63h29.17v-10h9.17c12.23,0,25.41-2.92,25.41-17.52V49.32c0-14.81-11.53-17.31-24-17.31Zm-4.94,43.8c0,1.25-1.41,2.51-3.29,2.51h-2.35v-34h2.35c1.88,0,3.29,1.25,3.29,2.5v29ZM187,31c-18.58,0-32.23,4.8-32.23,19.61V71.85c0,14.6,13.65,19.61,32.23,19.61,18.12,0,32-5,32-19.61V50.58C219,35.77,205.14,31,187,31Zm3.06,45.47c0,1.46-1.65,2.5-3.06,2.5a2.71,2.71,0,0,1-2.82-2.5V46c0-1.26,1.41-2.3,2.82-2.3s3.06,1,3.06,2.3V76.44Zm60.43-38V32H221.34V90.62h29.17V59.54c0-4.79,3.29-7.71,8.93-7.71h5.65V31.18c-4,0-11.53,1.46-14.58,7.3Zm45.6,32.33v-20h9.41V32h-9.41V23.67H266.94v51.1c0,11.26,7.29,15.85,22.35,15.85h16.47V73.52h-5.65c-3.29,0-4-.83-4-2.71Zm48-17.52c-5.88-1.46-8.47-2.09-8.47-4.8V45.78c0-1.46,1.41-2.09,2.59-2.09,1.64,0,2.82.63,2.82,2.09v6h26.82V47.24C367.83,34.93,355.6,31,338,31c-16.7,0-31.28,4-31.28,16.48v2.29c0,7.3,2.58,13.56,25.87,19.4,5.65,1.46,8.47,2.29,8.47,5v2.92c0,1.46-1.18,1.88-2.82,1.88-1.18,0-2.59-.62-2.59-2.08V71H306.67v3.12c0,12.1,8,17.52,31.52,17.52,18.11,0,31.05-3.54,31.05-19.18V70c0-7.51-3.76-11.47-25.17-16.68ZM386.42,90h32.23V7H386.42V90Zm35.49,0h29.41V18.89H421.91V90Zm32.84,0h29.4V18.89h-29.4V90Zm67-13.13H518.7c-1.88,0-2.35-.84-2.35-2.51v-43H487.18V72.7C487.18,84.18,495.88,90,510,90h40.93V31.4H521.76V76.88Zm68-24c-5.88-1.46-8.47-2.09-8.47-4.8V45.38c0-1.46,1.42-2.09,2.59-2.09,1.65,0,2.82.63,2.82,2.09v6h27.76v-4.8c0-12.31-12.94-16.06-30.58-16.06-.81,0-1.62,0-2.42,0a63.42,63.42,0,0,0-15.83,2.08c-7.91,2.28-13.27,6.63-13.27,14.16v2.5c0,7.3,2.35,13.56,25.64,19.4,5.65,1.46,8.47,2.29,8.47,5v2.92c0,1.46-1.18,1.87-2.82,1.87-1.18,0-2.59-.62-2.59-2.08V70.62H552.07v3.13c0,12.1,8,17.52,31.53,17.52,18.11,0,31.28-3.55,31.28-19.19v-2.5c0-7.51-3.76-11.48-25.17-16.69ZM645.2,23.06H616V74C616,85.64,623.32,90,638.38,90h16V72.91H649c-2.82,0-3.76-.83-3.76-2.5V49.76h9.17V31.4H645.2V23.06Zm79.48,7.3H705.62c-10.35,0-16.7,4.17-20,10.85V31.4H656.46V90h29.4V58.1c0-4.79,3.53-7.71,8.94-7.71H719V42h2.59c1.88,0,3.06,1.05,3.06,2.71v7.72H713.39c-10.83,0-24.7,3.55-24.7,17.11V72.7C688.69,86.26,701.15,90,712,90h41.88V49.34c0-11.68-5-19-29.17-19Zm0,46.93H722.8c-3.3,0-3.77-.83-3.77-2.5V67.7c0-2.09,1.18-3.34,4-3.34h1.65V77.29Zm60.66-54.23H756.17V74c0,11.68,7.29,16.05,22.35,16.05h15.75V72.91H789.1c-3.06,0-3.76-.83-3.76-2.5V49.76h8.93V31.4h-8.93V23.06Zm41.37,7.3C808.36,30.36,795,35.16,795,50V70.83c0,15,13.41,20,31.76,20s32-4.59,32-19.61V67.07H829.53v8.76c0,1.46-1.18,2.09-2.82,2.09-1.41,0-2.82-.63-2.82-2.09V64.57H858.7V50.18c0-14.6-13.64-19.82-32-19.82Zm3.06,21.28h-5.88V44.75a2.71,2.71,0,0,1,2.82-2.5c1.88,0,3.06,1,3.06,2.5v6.89ZM894.9,15.76V31.4H884.78C874,31.4,860.55,35,860.55,48.51V72.7c0,13.56,12,17.31,22.82,17.31h40.7V15.76Zm0,62h-2.12c-2.35,0-3.06-.83-3.06-2.3V46c0-1,.71-2.3,3.06-2.3h2.12v34Z" transform="translate(-12.3 -7)"/></svg>